# xmcd
#
# Track frame offsets:
#	150
#	18462
#	33407
#	63492
#	76242
#	87725
#	110307
#	124932
#	135995
#	154890
#
# Disc length: 2293 seconds
#
# Revision: 1
# Processed by: cddbd v1.5PL3 Copyright (c) Steve Scherf et al.
# Submitted via: audiograbber 1.83.01
#
DISCID=7e08f30a
DTITLE=Bluespumpm - The 5th - 10 Year's Jubilee
DYEAR=1987
DGENRE=Austro
TTITLE0=In the morning
TTITLE1=Funny movement
TTITLE2=Only a few days
TTITLE3=Lies
TTITLE4=Cold tears
TTITLE5=Ma father's song
TTITLE6=Lonely place
TTITLE7=Wöd in Harmonie
TTITLE8=Try to carry on
TTITLE9=Oh baby
EXTD=
EXTT0=
EXTT1=
EXTT2=
EXTT3=
EXTT4=
EXTT5=
EXTT6=
EXTT7=
EXTT8=
EXTT9=
PLAYORDER=
